PathFileType	4	(X/Y/Z)	C:\Users\°ÂÌØÂü\Desktop\20210112\bx_y_10_501-Unnamed.trc
DataRate	CameraRate	NumFrames	NumMarkers	Units	OrigDataRate	OrigDataStartFrame	OrigNumFrames
50.00	50.00	       7	0	mm	50.00	336	       537
Frame#	Time	
		

336	6.700	-548.81720	255.03813	1481.53784	-796.76495	242.35747	637.90930	-683.43781	202.89975	818.31250	-550.98511	-98.97162	1478.39282	-751.22101	136.53036	572.48828	-684.94257	-22.76496	805.43250	-540.80560	74.01844	1347.06274	-688.44159	197.89232	1056.36816	-757.79425	-80.77480	868.03784	-743.67078	267.24310	878.58551	-724.96991	9.03724	524.38739	-790.03796	238.77281	573.27625	-820.61261	251.53151	495.92776	-730.03204	199.67747	537.09052	-723.74158	73.39989	219.40770	-666.47040	-69.16422	160.42999	-716.71747	154.27248	219.46764	-774.96863	224.87016	203.42006	-882.37738	296.22452	144.75139	-676.35669	54.14021	161.14072	-604.67725	18.49982	167.55466	-676.90320	174.55048	159.36992	-596.48138	223.48178	173.60623	-667.18237	299.80862	159.46286	-629.54138	307.22745	161.20015	-562.21991	261.47330	164.19902	-527.87030	303.88266	146.29277	-379.45065	78.48126	1737.58813	-789.89923	-59.31775	713.81323	-782.25647	266.29904	747.54932	-517.98755	-72.69999	143.11308	-562.51251	-39.99582	162.63199	-798.54218	174.79791	182.81094	-796.12567	54.64465	173.92763	-754.53040	70.82972	573.14941	-815.86847	-43.43357	479.28308	-772.66016	-7.48048	202.83569	-876.17322	-78.24531	141.43102	-776.54083	-37.69027	613.71930	-781.39404	-33.77565	563.34717	-624.58356	-80.14140	157.82320	-695.25513	-21.79395	1036.22607	-890.26550	77.34290	1078.16040	
337	6.720	-544.59314	254.59038	1476.24377	-798.91010	242.03755	637.53009	-686.73773	202.34563	818.18121	-546.57642	-98.97478	1473.36951	-753.49103	136.03763	572.34271	-687.97363	-24.50827	805.95813				-691.80219	198.11882	1055.38269	-760.97766	-80.56339	867.50299	-746.93768	267.52362	878.60187	-726.40601	9.06968	524.57831	-792.24780	238.77602	572.68927	-821.92358	251.17023	495.25336	-732.20850	199.54147	537.04041	-723.82397	73.70908	219.80655	-666.36810	-69.23886	160.40105	-716.82300	154.27979	219.51993	-775.00208	225.03062	203.41040	-882.59039	295.95660	144.61356	-676.34259	53.99475	161.23746	-604.61035	18.19976	167.94121	-677.01343	174.44972	159.85185	-596.48138	223.48178	173.60623	-667.10480	299.94464	159.48367	-629.37811	307.18304	161.08382	-562.30530	261.35172	164.33940	-527.96649	303.85571	146.27933	-372.13757	78.27274	1730.11536				-785.30029	266.58221	747.35095	-518.02728	-72.55820	142.92320	-562.66187	-40.10184	162.57912	-798.63245	174.77296	182.68942	-796.29938	54.30212	174.08575	-756.72791	70.05318	572.38379	-817.22943	-43.45517	478.92923	-772.97290	-7.65062	202.85736	-876.17322	-78.24531	141.43102	-778.14447	-38.00069	613.68115	-783.70557	-33.88487	563.33331	-624.41766	-80.35449	157.74559	-699.30157	-22.03080	1035.32617	-894.28497	77.99258	1078.76367	-789.34906	-59.12740	714.37073	
338	6.740	-540.21149	254.45560	1471.42114	-801.54199	242.48039	637.06970	-690.03912	202.84195	817.96936	-541.82465	-98.77083	1468.19934	-755.57935	136.56589	572.25824							-695.67944	198.56447	1054.53870	-764.20435	-80.65744	867.37286	-751.06543	267.35291	877.83514	-728.40118	8.65554	524.77454	-794.43365	238.73560	572.35980	-824.00458	251.57939	494.94623	-734.62854	199.64384	536.90289	-724.05109	73.46655	219.58081	-666.65070	-69.25673	160.25363	-717.36627	154.27982	219.38773	-775.06415	225.01035	203.21686	-882.60718	296.00592	144.72913	-676.61627	53.97760	161.44617	-604.54773	18.09834	167.79593	-677.05194	174.71640	159.79765	-596.84351	223.41679	173.78308	-667.23572	300.10953	159.27597	-629.54138	307.22745	161.20015	-562.29877	261.40735	164.39883	-528.08594	303.77991	146.13737	-364.63480	78.28684	1722.77795				-788.63916	266.29724	746.60138	-517.95062	-72.80264	143.01308	-562.61462	-40.03070	162.73351	-798.78448	174.91212	182.50815	-796.44965	54.26258	173.94302	-758.92291	70.26440	572.50891	-818.94196	-43.39103	478.23047	-772.91205	-8.11447	202.54559	-876.15662	-78.34419	141.32779	-781.37164	-37.99641	612.80865	-785.92340	-34.31868	563.13855	-624.58026	-80.36207	157.60318	-702.21924	-21.67906	1034.25574	-900.11469	77.78001	1078.65442	-791.74829	-59.19040	713.95416	
339	6.760	-535.71356	254.26601	1466.30603	-804.19415	242.27582	636.26379	-693.55975	203.06953	817.45386	-537.45599	-98.90351	1463.26746	-757.43524	136.51163	571.56738	-798.36035	-60.20158	713.03003				-698.23810	198.77988	1053.59351	-767.71814	-80.43128	866.70221	-754.42969	267.96347	877.67853	-730.13580	8.31965	524.86017	-796.90173	238.99063	571.85486	-826.25049	251.16541	494.45956	-736.18152	199.73599	536.81384	-724.12866	73.18040	220.07623	-666.74243	-69.60611	160.23099	-717.30945	154.38919	219.63486	-775.23035	224.94298	202.76506	-882.58124	296.13739	144.77245	-676.40808	53.70273	161.43199	-604.78217	17.97730	167.93575	-677.26227	174.39409	160.45110	-596.33173	223.03723	173.73651	-667.23572	300.10953	159.27597	-629.54138	307.22745	161.20015	-562.47864	261.31705	164.53867	-527.99500	303.70605	146.24858	-357.55603	78.07162	1715.15332				-791.70410	267.10278	746.46027	-518.03668	-72.83241	143.01859	-562.74103	-39.78137	162.61047	-798.89600	175.15173	182.20764	-796.50012	53.98575	173.95186	-761.09320	69.70793	572.16260	-821.07306	-44.13140	478.00970	-773.53436	-7.94445	202.18225	-876.17322	-78.24531	141.43102	-783.31091	-38.63181	613.33453	-787.75836	-34.53299	562.67700	-624.51520	-80.35741	157.66148	-705.56824	-21.65381	1033.12891	
340	6.780	-531.76959	254.18364	1461.32031	-806.83649	242.38580	635.49146	-697.19391	203.09760	817.31622	-533.45453	-98.58440	1457.72339	-759.96844	136.91605	570.91510				-904.03760	77.48068	1078.74780				-770.72858	-80.53629	866.20172	-758.17603	267.88840	877.23260	-732.21881	8.71288	524.44446	-798.90765	239.67015	571.70483	-827.23895	251.86629	494.09372	-738.11896	200.21053	537.04779	-724.39264	73.17775	220.07619	-666.67761	-69.65470	160.10446	-717.60828	154.41396	220.35376	-775.35815	224.93156	202.48155	-882.53650	295.99994	144.71989	-676.68524	53.48490	161.44856	-604.81152	18.16023	167.96606	-677.20190	174.99413	160.30853	-596.50507	223.48608	174.08784	-667.17224	299.91458	159.28052	-629.54138	307.22745	161.20015	-562.50214	261.20505	164.50107	-528.29553	303.80826	146.20578	-350.21744	79.10755	1707.43164				-795.53516	267.11682	745.85754	-518.10602	-72.77672	142.87170	-562.64862	-40.00911	162.78363	-798.97552	175.35365	182.24399	-796.56354	53.96176	173.90775	-763.49756	69.59588	571.51825	-822.30273	-44.07955	477.74396	-773.67261	-8.30606	202.17322	-876.18384	-78.29334	141.38251	-785.21808	-38.90011	612.91229	-789.83942	-34.23818	562.19562	-624.64032	-80.51176	157.46631	-708.74951	-21.08284	1031.94641	
341	6.800	-528.49628	253.11234	1455.78064	-809.05255	242.71326	635.13544	-700.77618	203.51625	817.21124	-528.94751	-98.75380	1452.23108	-762.00659	136.84512	571.45477	-801.37061	-60.08378	711.09058	-907.07269	77.19147	1078.82239				-774.07806	-80.41475	866.12823	-761.62439	268.31021	876.88141	-733.55725	8.05296	524.83093	-800.80048	239.67520	571.69208	-829.16803	252.09419	493.64063	-740.15106	200.33665	537.27588	-724.88104	73.37486	220.48663	-666.53009	-69.55063	160.12845	-718.15790	154.45331	220.26227	-775.67163	224.88750	202.33789	-882.55017	296.02228	144.76566	-676.59473	53.37876	161.58092	-604.79431	18.17482	168.02876	-677.16962	174.84172	160.72919	-596.79565	223.36081	173.97237	-667.17224	299.91458	159.28052	-629.47729	307.21646	161.10773	-562.65448	261.08389	164.34319	-527.91553	303.65103	146.32283	-343.59155	78.93931	1699.25928				-798.72089	267.48755	745.48566	-518.11090	-72.93003	143.07579	-562.79047	-39.85791	162.57616	-798.80200	174.71706	182.96832	-796.73010	53.84318	173.85410	-765.72791	69.68104	571.47668	-823.62048	-44.42914	477.36560	-772.56299	-8.82657	202.44302	-876.06873	-78.18630	140.99452	-787.39520	-38.92485	612.63190	-791.67047	-34.73508	562.24896	-624.56201	-80.63731	157.55098	-712.43524	-21.29072	1031.54138	
342	6.820	-524.48834	252.58133	1449.74268	-811.78955	242.69781	634.42981	-704.33075	203.60403	817.14325	-524.81976	-98.12201	1446.22852	-763.60895	136.48315	571.14551	-803.59174	-60.04942	710.88678	-909.36646	76.96508	1078.60364	-529.68127	73.94740	1317.25293	-776.97278	-80.09013	865.85223	-765.32745	268.32089	876.18744	-735.31219	8.43992	524.61255	-802.75171	239.70981	570.89215	-830.60822	252.29190	492.91910	-741.62805	200.34438	537.16168	-725.08740	73.22765	220.47424	-666.60236	-69.69143	160.13605	-718.15094	154.59244	220.07600	-775.80518	225.25487	202.29463	-882.63544	296.01575	144.60338	-676.67084	53.40583	161.69923	-604.90326	18.20907	168.06786	-677.50751	175.12877	160.64723	-596.99780	223.49289	174.03787	-667.09070	299.99918	159.27835	-629.59729	307.37488	161.04425	-562.80005	261.19318	164.33549	-527.85089	303.89102	146.35703	-337.01749	78.87270	1691.24438				-801.51086	268.30594	745.54340	-518.15674	-72.81433	142.99911	-562.74243	-39.74808	162.64548	-798.81024	174.79514	182.89217	-796.81146	54.03038	173.84172	-767.28906	69.19644	571.11469	-824.87280	-44.21292	476.74161	-772.98615	-8.92384	202.69908	-876.04663	-78.14572	141.00346	-789.22198	-38.64474	612.11157	-793.48877	-34.80076	562.09192	-624.54126	-80.71285	157.31534	-715.50537	-19.67503	1031.15320	
